# xmcd
#
# Track frame offsets:
#	150
#	9492
#	21549
#	34721
#
# Disc length: 647 seconds
#
# Revision: 1
# Processed by: cddbd v1.5.2PL0 Copyright (c) Steve Scherf et al.
# Submitted via: audiograbber 1.83.01
#
DISCID=28028504
DTITLE=The Blues Blasters - Soul, Rhythm N' Blues
DYEAR=2000
DGENRE=
TTITLE0=Sweet Soul Music
TTITLE1=Saved
TTITLE2=I Can't Stand  The Rain
TTITLE3=Grits Ain't Groceries
EXTD=
EXTT0=
EXTT1=
EXTT2=
EXTT3=
PLAYORDER=
